<svg xmlns="http://www.w3.org/2000/svg" viewBox="0 0 137.53 86.7">


    <path class="primaryColor" d="m22.6,18.13h-1.57v6.78h1.57c3.02,0,4.27-.99,4.27-3.39s-1.25-3.39-4.27-3.39Zm35.18,4.12l-2.61,8.86h5.22l-2.61-8.86Zm0,0l-2.61,8.86h5.22l-2.61-8.86Zm-35.18-4.12h-1.57v6.78h1.57c3.02,0,4.27-.99,4.27-3.39s-1.25-3.39-4.27-3.39Zm0,0h-1.57v6.78h1.57c3.02,0,4.27-.99,4.27-3.39s-1.25-3.39-4.27-3.39Zm35.18,4.12l-2.61,8.86h5.22l-2.61-8.86Zm0,0l-2.61,8.86h5.22l-2.61-8.86Zm-35.18-4.12h-1.57v6.78h1.57c3.02,0,4.27-.99,4.27-3.39s-1.25-3.39-4.27-3.39Zm0,0h-1.57v6.78h1.57c3.02,0,4.27-.99,4.27-3.39s-1.25-3.39-4.27-3.39Zm35.18,4.12l-2.61,8.86h5.22l-2.61-8.86Zm0,0l-2.61,8.86h5.22l-2.61-8.86Zm-35.18-4.12h-1.57v6.78h1.57c3.02,0,4.27-.99,4.27-3.39s-1.25-3.39-4.27-3.39ZM0,0v86.7h137.53V0H0Zm26.7,51.73h-12.89v9.07h11.79v3.01h-11.79v9.88h12.89v3.01H10v-27.98h16.7v3.01Zm-.09-12.8v-1.04c0-3.91-1.2-5.42-4.43-5.42h-1.15v11.93h-11.41V10h13.13c10.53,0,16.27,3.54,16.27,10.06,0,4.59-3.6,7.71-9.49,8.55v.1c6.2.58,8.71,3.13,8.71,8.45v.73c0,2.81.52,4.9,1.66,6.51h-11.83c-.99-1.14-1.46-2.97-1.46-5.47Zm18.01,37.77h-3.82l-10.34-27.98h4.07l8.27,23.45,8.31-23.45h3.86l-10.35,27.98Zm31.16-24.97h-12.89v9.07h11.79v3.01h-11.79v9.88h12.89v3.01h-16.7v-27.98h16.7v3.01Zm-10.74-7.33l-1.51-5.31h-9.49l-1.57,5.31h-11.41l12.35-34.4h11.16l12.35,34.4h-11.88Zm14.17-34.4h11.42v34.4h-11.42V10Zm23.54,66.7h-3.56l-13.87-21.75v21.75h-3.52v-27.98h3.56l13.87,21.75v-21.75h3.52v27.98Zm24.78-24.97h-8.74v24.97h-3.81v-24.97h-8.74v-3.01h21.29v3.01Zm0-7.33h-9.75l-11.94-16.52v16.52h-10.16V10h9.74l11.94,16.52V10h10.17v34.4Zm-72.36-13.29h5.22l-2.61-8.86-2.61,8.86Zm-32.57-12.98h-1.57v6.78h1.57c3.02,0,4.27-.99,4.27-3.39s-1.25-3.39-4.27-3.39Zm0,0h-1.57v6.78h1.57c3.02,0,4.27-.99,4.27-3.39s-1.25-3.39-4.27-3.39Zm35.18,4.12l-2.61,8.86h5.22l-2.61-8.86Zm0,0l-2.61,8.86h5.22l-2.61-8.86Zm-35.18-4.12h-1.57v6.78h1.57c3.02,0,4.27-.99,4.27-3.39s-1.25-3.39-4.27-3.39Zm0,0h-1.57v6.78h1.57c3.02,0,4.27-.99,4.27-3.39s-1.25-3.39-4.27-3.39Zm35.18,4.12l-2.61,8.86h5.22l-2.61-8.86Zm0,0l-2.61,8.86h5.22l-2.61-8.86Zm-35.18-4.12h-1.57v6.78h1.57c3.02,0,4.27-.99,4.27-3.39s-1.25-3.39-4.27-3.39Zm35.18,4.12l-2.61,8.86h5.22l-2.61-8.86Zm0,0l-2.61,8.86h5.22l-2.61-8.86Z"/>

</svg>